HIERARCHY
ROOT Hips
{
	OFFSET -13.808980 106.085968 -1.014076
	CHANNELS 6 Xposition Yposition Zposition Xrotation Yrotation Zrotation
	JOINT Chest
	{
		OFFSET -0.657339 13.627632 -0.099285
		CHANNELS 3 Xrotation Yrotation Zrotation
		JOINT Chest2
		{
			OFFSET -0.762035 21.030281 4.026595
			CHANNELS 3 Xrotation Yrotation Zrotation
			JOINT Chest3
			{
				OFFSET 0.540637 14.900742 0.703874
				CHANNELS 3 Xrotation Yrotation Zrotation
				JOINT Neck
				{
					OFFSET 2.035231 17.052856 1.916808
					CHANNELS 3 Xrotation Yrotation Zrotation
					JOINT Head
					{
						OFFSET 2.836235 9.551163 3.249422
						CHANNELS 3 Xrotation Yrotation Zrotation
						End Site
						{
							OFFSET 2.835043 9.574768 3.180259
						}
					}
				}
				JOINT LeftCollar
				{
					OFFSET 5.855266 12.275024 4.104151
					CHANNELS 3 Xrotation Yrotation Zrotation
					JOINT LeftUpArm
					{
						OFFSET 15.818542 -3.447495 -6.810870
						CHANNELS 3 Xrotation Yrotation Zrotation
						JOINT LeftLowArm
						{
							OFFSET 29.922432 -13.512329 7.860880
							CHANNELS 3 Xrotation Yrotation Zrotation
							JOINT LeftHand
							{
								OFFSET 25.086845 2.599854 16.273829
								CHANNELS 3 Xrotation Yrotation Zrotation
								End Site
								{
									OFFSET 5.482887 0.568161 3.556742
								}
							}
						}
					}
				}
				JOINT RightCollar
				{
					OFFSET -2.495594 13.220551 4.560468
					CHANNELS 3 Xrotation Yrotation Zrotation
					JOINT RightUpArm
					{
						OFFSET -16.152161 2.302750 -6.503948
						CHANNELS 3 Xrotation Yrotation Zrotation
						JOINT RightLowArm
						{
							OFFSET -33.197990 -6.079697 0.815678
							CHANNELS 3 Xrotation Yrotation Zrotation
							JOINT RightHand
							{
								OFFSET -23.250755 -3.763992 18.606159
								CHANNELS 3 Xrotation Yrotation Zrotation
								End Site
								{
									OFFSET -5.081680 -0.822632 4.066572
								}
							}
						}
					}
				}
			}
		}
	}
	JOINT LeftUpLeg
	{
		OFFSET 10.000059 0.485268 0.427179
		CHANNELS 3 Xrotation Yrotation Zrotation
		JOINT LeftLowLeg
		{
			OFFSET 21.189274 -41.177086 9.972583
			CHANNELS 3 Xrotation Yrotation Zrotation
			JOINT LeftFoot
			{
				OFFSET 9.346899 -39.548111 -18.685577
				CHANNELS 3 Xrotation Yrotation Zrotation
				JOINT LeftToe
				{
					OFFSET 6.069136 -21.128950 8.734577
					CHANNELS 3 Xrotation Yrotation Zrotation
					End Site
					{
						OFFSET 5.846607 -10.328069 20.462332
					}
				}
			}
		}
	}
	JOINT RightUpLeg
	{
		OFFSET -10.000052 -0.485466 -0.427177
		CHANNELS 3 Xrotation Yrotation Zrotation
		JOINT RightLowLeg
		{
			OFFSET -10.773693 -45.482689 7.698335
			CHANNELS 3 Xrotation Yrotation Zrotation
			JOINT RightFoot
			{
				OFFSET 0.039680 -39.480415 -21.020824
				CHANNELS 3 Xrotation Yrotation Zrotation
				JOINT RightToe
				{
					OFFSET -5.169334 -21.814407 7.547616
					CHANNELS 3 Xrotation Yrotation Zrotation
					End Site
					{
						OFFSET -9.564873 -11.139684 18.546608
					}
				}
			}
		}
	}
}
MOTION
Frames: 5
Frame Time: 0.033333
-40.670811 118.399620 -4.952085 0.149701 22.299593 15.176211 8.113534 0.711898 -13.041442 0.197997 1.679670 -2.125114 -3.641108 -16.466422 -1.245376 -1.769797 -5.304450 2.532753 0.000002 -0.000000 0.000001 1.307797 -10.318827 -5.358988 -3.590404 -16.493131 5.587682 -43.203634 -61.891766 -100.569481 -0.000002 0.000000 0.000000 -0.124418 2.739612 -29.015296 5.890602 14.322398 -41.425087 -5.647579 -31.020417 -21.388049 -0.000001 0.000000 -0.000000 -37.069629 -24.970209 54.518625 29.848080 -2.271848 -66.350370 -37.514203 16.404263 42.006268 -0.000002 0.000003 0.000001 5.573254 -0.982959 -3.635447 -11.448581 -0.937584 -1.272828 -25.188295 7.561623 -2.052975 -0.000001 0.000000 0.000001 
-40.941250 118.451637 -5.178964 0.014206 21.327447 15.168657 8.270347 0.693703 -13.104143 -1.058643 2.123571 -2.540867 -2.515558 -16.611648 -0.594948 -1.740330 -5.296849 2.503880 -0.000001 0.000001 0.000002 1.247672 -9.996004 -5.477799 -3.417090 -16.368480 5.770081 -43.781912 -61.986712 -101.311171 -0.000003 -0.000000 -0.000001 -0.517578 2.314612 -28.792440 6.192133 15.355749 -41.402496 -5.837387 -30.656683 -21.723123 -0.000001 0.000000 -0.000000 -36.165165 -24.318383 54.581524 29.002544 -2.170944 -67.212975 -37.996691 17.254168 43.540147 0.000001 0.000003 0.000001 5.532082 -0.748221 -3.155434 -10.557582 -0.587344 -1.810229 -25.734140 7.531621 -2.225753 -0.000001 -0.000001 -0.000001 
-41.143108 118.417221 -5.390111 0.251677 20.907913 15.116626 7.234979 0.849964 -13.400437 0.332174 1.340066 -1.680951 -3.606518 -15.708327 -0.951752 -2.071995 -5.275216 2.341476 -0.000000 0.000002 -0.000001 0.684690 -10.197887 -6.065640 -4.024946 -15.845310 5.395803 -41.899714 -61.014162 -100.255381 -0.000001 0.000000 0.000001 -0.111825 3.433228 -28.006381 5.173470 15.562784 -41.332268 -6.428489 -28.851518 -21.210736 -0.000000 -0.000001 0.000001 -36.239351 -24.097182 53.372717 29.802106 -2.381247 -67.463370 -38.263700 16.545858 43.099723 0.000003 0.000001 0.000000 5.456387 -0.722415 -2.623176 -8.723683 -0.176216 -3.945418 -26.856135 8.797274 -0.976267 -0.000002 0.000002 0.000002 
-41.307240 118.345322 -5.610879 0.713750 20.969567 15.092729 6.406393 0.960535 -13.288749 1.927510 0.754880 -1.073069 -5.039562 -15.187236 -1.413641 -2.294765 -5.172772 2.218940 -0.000002 0.000000 0.000002 0.326880 -9.593920 -6.334898 -4.301467 -15.764963 4.821695 -41.263335 -60.829398 -100.347138 0.000002 -0.000002 0.000003 0.285602 4.226970 -27.434997 4.561796 15.074818 -41.307355 -6.637653 -27.941505 -21.560324 -0.000000 0.000002 -0.000001 -36.639006 -24.015753 52.015531 29.981324 -2.290979 -67.872532 -37.922850 16.656403 42.866482 0.000001 0.000000 0.000002 4.666336 -0.627554 -2.672559 -6.588652 -0.288997 -4.446611 -28.069173 9.671599 -0.304922 -0.000000 0.000003 -0.000001 
-41.362316 118.075546 -5.789212 0.365362 21.012363 15.584673 6.390527 0.812133 -12.515480 1.857821 1.318650 -1.500941 -4.777030 -14.409408 -1.152701 -2.158391 -5.332139 3.300477 -0.000000 0.000001 0.000003 1.158652 -9.411791 -6.249819 -2.006554 -14.464382 4.372303 -45.827803 -63.808208 -100.249070 -0.000001 -0.000002 0.000002 1.056029 3.511760 -26.865451 6.143575 13.212282 -41.658727 -5.510644 -29.774553 -23.518174 -0.000000 0.000000 -0.000000 -36.781706 -23.398391 49.772026 31.555272 -2.715444 -68.098721 -38.530689 16.091098 43.146165 -0.000003 -0.000002 -0.000000 5.874650 -0.811190 -2.972235 -12.002605 -1.016760 -2.598772 -24.389311 5.675831 -3.396535 -0.000000 -0.000001 -0.000003 
